<?xml version="1.0" encoding="UTF-8" standalone="no" ?>
<!DOCTYPE svg PUBLIC "-//W3C//DTD SVG 1.1//EN" "http://www.w3.org/Graphics/SVG/1.1/DTD/svg11.dtd">
<svg xmlns="http://www.w3.org/2000/svg" xmlns:xlink="http://www.w3.org/1999/xlink" version="1.1" width="1280" height="1024" viewBox="0 0 1280 1024" xml:space="preserve">
<desc>Created with Fabric.js 3.6.3</desc>
<defs>
</defs>
<g transform="matrix(1.9692780337941629 0 0 1.9692780337941629 640.0153846153846 512.012312418764)" id="background-logo"  >
<rect style="stroke: none; stroke-width: 1; stroke-dasharray: none; stroke-linecap: butt; stroke-dashoffset: 0; stroke-linejoin: miter; stroke-miterlimit: 4; fill: transparent; fill-rule: nonzero; opacity: 1;"  paint-order="stroke"  x="-325" y="-260" rx="0" ry="0" width="650" height="520" />
</g>
<g transform="matrix(3.342771493772462 0 0 3.342771493772462 677.709249000075 520.0351805138398)" id="shape-5-logo"  >
<g style=""  paint-order="stroke"   >
		<g transform="matrix(1 0 0 1 80.0389408364163 -0.01358344047704918)" id="Layer_1"  >
<path style="stroke: none; stroke-width: 1; stroke-dasharray: none; stroke-linecap: butt; stroke-dashoffset: 0; stroke-linejoin: miter; stroke-miterlimit: 4; fill: rgb(92,224,230); fill-rule: nonzero; opacity: 1;"  paint-order="stroke"  transform=" translate(-180.0439408364163, -99.99000000000001)" d="M 160.08 137.88 L 194 104 a 5.65 5.65 0 0 0 0 -8 l -33.91 -33.9 h 6.18 l 30.82 30.82 a 10 10 0 0 1 0 14.12 l -30.82 30.82 Z" stroke-linecap="round" />
</g>
		<g transform="matrix(1 0 0 1 -80.04394083641631 0.00641655952293263)" id="Layer_1"  >
<path style="stroke: none; stroke-width: 1; stroke-dasharray: none; stroke-linecap: butt; stroke-dashoffset: 0; stroke-linejoin: miter; stroke-miterlimit: 4; fill: rgb(92,224,230); fill-rule: nonzero; opacity: 1;"  paint-order="stroke"  transform=" translate(-19.961059163583684, -100.00999999999999)" d="M 33.74 137.88 L 2.92 107.06 a 10 10 0 0 1 0 -14.12 L 33.74 62.12 h 6.18 L 6 96 a 5.63 5.63 0 0 0 0 8 l 33.91 33.9 Z" stroke-linecap="round" />
</g>
		<g transform="matrix(1 0 0 1 0.060000000000002274 -77.03501822983023)" id="Layer_1"  >
<path style="stroke: none; stroke-width: 1; stroke-dasharray: none; stroke-linecap: butt; stroke-dashoffset: 0; stroke-linejoin: miter; stroke-miterlimit: 4; fill: rgb(92,224,230); fill-rule: nonzero; opacity: 1;"  paint-order="stroke"  transform=" translate(-100.065, -22.968565210646823)" d="M 143.84 45.88 L 104 6 a 5.63 5.63 0 0 0 -8 0 L 56.16 45.88 H 50 l 43 -42.95 a 10 10 0 0 1 14.13 0 l 43 43 Z" stroke-linecap="round" />
</g>
		<g transform="matrix(1 0 0 1 -0.0049999999999954525 77.05643478935319)" id="Layer_1"  >
<path style="stroke: none; stroke-width: 1; stroke-dasharray: none; stroke-linecap: butt; stroke-dashoffset: 0; stroke-linejoin: miter; stroke-miterlimit: 4; fill: rgb(92,224,230); fill-rule: nonzero; opacity: 1;"  paint-order="stroke"  transform=" translate(-100, -177.06001822983023)" d="M 100 200 a 9.93 9.93 0 0 1 -7.07 -2.93 L 50 154.12 h 6.18 L 96 194 a 5.63 5.63 0 0 0 8 0 l 39.86 -39.86 H 150 l -43 42.95 A 9.89 9.89 0 0 1 100 200 Z" stroke-linecap="round" />
</g>
		<g transform="matrix(1 0 0 1 -0.0049999999999954525 -35.00358344047706)" id="Layer_1"  >
<path style="stroke: none; stroke-width: 1; stroke-dasharray: none; stroke-linecap: butt; stroke-dashoffset: 0; stroke-linejoin: miter; stroke-miterlimit: 4; fill: rgb(255,255,255); fill-rule: nonzero; opacity: 1;"  paint-order="stroke"  transform=" translate(-100, -65)" d="M 181.16 51.81 H 18.84 A 9.88 9.88 0 0 0 9 61.68 V 78.07 l 4.37 -4.37 v -12 a 5.51 5.51 0 0 1 5.5 -5.5 H 181.16 a 5.51 5.51 0 0 1 5.5 5.5 V 73.82 L 191 78.19 V 61.68 A 9.88 9.88 0 0 0 181.16 51.81 Z" stroke-linecap="round" />
</g>
		<g transform="matrix(1 0 0 1 0.010000000000005116 34.881416559522926)" id="Layer_1"  >
<path style="stroke: none; stroke-width: 1; stroke-dasharray: none; stroke-linecap: butt; stroke-dashoffset: 0; stroke-linejoin: miter; stroke-miterlimit: 4; fill: rgb(255,255,255); fill-rule: nonzero; opacity: 1;"  paint-order="stroke"  transform=" translate(-100.015, -134.885)" d="M 186.66 138.32 a 5.51 5.51 0 0 1 -5.5 5.5 H 18.84 a 5.51 5.51 0 0 1 -5.5 -5.5 V 126.07 L 9 121.7 v 16.62 a 9.88 9.88 0 0 0 9.87 9.87 H 181.16 a 9.88 9.88 0 0 0 9.87 -9.87 V 121.58 L 186.66 126 Z" stroke-linecap="round" />
</g>
</g>
</g>
<g transform="matrix(1.9692780337941629 0 0 1.9692780337941629 674.549174198891 511.5223452412656)" id="text-logo-path"  >
<path style="stroke: rgb(116,44,115); stroke-width: 0; stroke-dasharray: none; stroke-linecap: butt; stroke-dashoffset: 0; stroke-linejoin: miter; stroke-miterlimit: 10; fill: rgb(255,255,255); fill-rule: nonzero; opacity: 1;"  paint-order="stroke"  transform=" translate(-120.62500000000001, 26.72)" d="M 6.12 0 L 3.45 0 L 3.45 -53.44 L 6.12 -53.44 L 6.12 0 Z M 11.47 0 L 8.79 0 L 8.79 -53.44 L 11.47 -53.44 L 11.47 0 Z M 16.81 0 L 14.14 0 L 14.14 -53.44 L 16.81 -53.44 L 16.81 0 Z M 22.15 0 L 19.48 0 L 19.48 -53.44 L 44.98 -53.44 L 44.98 -50.77 L 22.15 -50.77 L 22.15 -48.09 L 44.98 -48.09 L 44.98 -45.42 L 22.15 -45.42 L 22.15 -42.75 L 44.98 -42.75 L 44.98 -40.08 L 22.15 -40.08 L 22.15 -31.91 L 43.2 -31.91 L 43.2 -29.24 L 22.15 -29.24 L 22.15 -26.57 L 43.2 -26.57 L 43.2 -23.9 L 22.15 -23.9 L 22.15 -21.23 L 43.2 -21.23 L 43.2 -18.55 L 22.15 -18.55 L 22.15 0 Z M 53.66 0 L 50.99 0 L 50.99 -53.44 L 53.66 -53.44 L 53.66 0 Z M 59 0 L 56.33 0 L 56.33 -53.44 L 59 -53.44 L 59 0 Z M 64.35 0 L 61.68 0 L 61.68 -53.44 L 64.35 -53.44 L 64.35 0 Z M 89.4 0 L 67.02 0 L 67.02 -53.44 L 69.69 -53.44 L 69.69 -13.36 L 89.4 -13.36 L 89.4 -10.69 L 69.69 -10.69 L 69.69 -8.02 L 89.4 -8.02 L 89.4 -5.34 L 69.69 -5.34 L 69.69 -2.67 L 89.4 -2.67 L 89.4 0 Z M 96.22 -15.31 Q 93.89 -20.74 93.89 -26.72 Q 93.89 -32.69 96.22 -38.13 Q 98.56 -43.57 102.5 -47.5 Q 106.43 -51.43 111.87 -53.77 Q 117.3 -56.11 123.28 -56.11 Q 129.25 -56.11 134.69 -53.77 Q 140.13 -51.43 144.06 -47.5 Q 147.99 -43.57 150.33 -38.13 Q 152.67 -32.69 152.67 -26.72 Q 152.67 -20.74 150.33 -15.31 Q 147.99 -9.87 144.06 -5.94 Q 140.13 -2 134.69 0.33 Q 129.25 2.67 123.28 2.67 Q 117.3 2.67 111.87 0.33 Q 106.43 -2 102.5 -5.94 Q 98.56 -9.87 96.22 -15.31 Z M 98.67 -37.09 Q 96.56 -32.14 96.56 -26.72 Q 96.56 -21.3 98.67 -16.35 Q 100.79 -11.39 104.37 -7.81 Q 107.95 -4.23 112.91 -2.12 Q 117.86 0 123.28 0 Q 128.7 0 133.65 -2.12 Q 138.6 -4.23 142.18 -7.81 Q 145.77 -11.39 147.88 -16.35 Q 150 -21.3 150 -26.72 Q 150 -32.14 147.88 -37.09 Q 145.77 -42.04 142.18 -45.63 Q 138.6 -49.21 133.65 -51.32 Q 128.7 -53.44 123.28 -53.44 Q 117.86 -53.44 112.91 -51.32 Q 107.95 -49.21 104.37 -45.63 Q 100.79 -42.04 98.67 -37.09 Z M 101.14 -17.37 Q 99.23 -21.82 99.23 -26.72 Q 99.23 -31.62 101.14 -36.07 Q 103.05 -40.52 106.26 -43.73 Q 109.47 -46.94 113.93 -48.85 Q 118.38 -50.77 123.28 -50.77 Q 128.18 -50.77 132.63 -48.85 Q 137.08 -46.94 140.29 -43.73 Q 143.5 -40.52 145.41 -36.07 Q 147.32 -31.62 147.32 -26.72 Q 147.32 -21.82 145.41 -17.37 Q 143.5 -12.91 140.29 -9.7 Q 137.08 -6.49 132.63 -4.58 Q 128.18 -2.67 123.28 -2.67 Q 118.38 -2.67 113.93 -4.58 Q 109.47 -6.49 106.26 -9.7 Q 103.05 -12.91 101.14 -17.37 Z M 103.59 -35.01 Q 101.9 -31.06 101.9 -26.72 Q 101.9 -22.38 103.59 -18.42 Q 105.28 -14.47 108.16 -11.6 Q 111.03 -8.72 114.98 -7.03 Q 118.94 -5.34 123.28 -5.34 Q 127.62 -5.34 131.57 -7.03 Q 135.52 -8.72 138.4 -11.6 Q 141.28 -14.47 142.96 -18.42 Q 144.65 -22.38 144.65 -26.72 Q 144.65 -31.06 142.96 -35.01 Q 141.28 -38.96 138.4 -41.84 Q 135.52 -44.72 131.57 -46.41 Q 127.62 -48.09 123.28 -48.09 Q 118.94 -48.09 114.98 -46.41 Q 111.03 -44.72 108.16 -41.84 Q 105.28 -38.96 103.59 -35.01 Z M 107.08 -17.33 Q 104.57 -21.63 104.57 -26.72 Q 104.57 -31.8 107.08 -36.11 Q 109.58 -40.41 113.89 -42.92 Q 118.19 -45.42 123.28 -45.42 Q 128.36 -45.42 132.67 -42.92 Q 136.97 -40.41 139.48 -36.11 Q 141.98 -31.8 141.98 -26.72 Q 141.98 -21.63 139.48 -17.33 Q 136.97 -13.03 132.67 -10.52 Q 128.36 -8.02 123.28 -8.02 Q 118.19 -8.02 113.89 -10.52 Q 109.58 -13.03 107.08 -17.33 Z M 111.94 -38.04 Q 107.25 -33.32 107.25 -26.72 Q 107.25 -20.11 111.94 -15.4 Q 116.63 -10.69 123.28 -10.69 Q 129.92 -10.69 134.61 -15.4 Q 139.31 -20.11 139.31 -26.72 Q 139.31 -33.32 134.61 -38.04 Q 129.92 -42.75 123.28 -42.75 Q 116.63 -42.75 111.94 -38.04 Z M 113.83 -17.27 Q 109.92 -21.19 109.92 -26.72 Q 109.92 -32.25 113.83 -36.16 Q 117.75 -40.08 123.28 -40.08 Q 128.81 -40.08 132.72 -36.16 Q 136.64 -32.25 136.64 -26.72 Q 136.64 -21.19 132.72 -17.27 Q 128.81 -13.36 123.28 -13.36 Q 117.75 -13.36 113.83 -17.27 Z M 115.73 -34.27 Q 112.59 -31.13 112.59 -26.72 Q 112.59 -22.3 115.73 -19.17 Q 118.86 -16.03 123.28 -16.03 Q 127.69 -16.03 130.83 -19.17 Q 133.96 -22.3 133.96 -26.72 Q 133.96 -31.13 130.83 -34.27 Q 127.69 -37.41 123.28 -37.41 Q 118.86 -37.41 115.73 -34.27 Z M 158.23 -21.15 L 158.23 -21.15 L 158.23 -53.44 L 160.91 -53.44 L 160.91 -21.15 Q 160.91 -16.59 162.63 -12.77 Q 164.36 -8.94 167.33 -6.42 Q 170.29 -3.9 174.28 -2.5 Q 178.27 -1.11 182.8 -1.11 L 182.8 -1.11 Q 188.7 -1.11 193.75 -3.8 Q 198.79 -6.49 201.75 -11.11 Q 204.7 -15.73 204.7 -21.15 L 204.7 -21.15 L 204.7 -53.44 L 207.37 -53.44 L 207.37 -21.15 Q 207.37 -20.08 207.68 -19.32 Q 208 -18.55 208.48 -18.15 Q 208.96 -17.74 209.78 -17.5 Q 210.6 -17.26 211.36 -17.2 Q 212.12 -17.14 213.23 -17.14 Q 214.34 -17.14 215.1 -17.2 Q 215.87 -17.26 216.68 -17.5 Q 217.5 -17.74 217.98 -18.15 Q 218.46 -18.55 218.78 -19.32 Q 219.09 -20.08 219.09 -21.15 L 219.09 -21.15 L 219.09 -53.44 L 221.77 -53.44 L 221.77 -21.15 Q 221.77 -14.47 213.23 -14.47 L 213.23 -14.47 Q 208.93 -14.47 206.85 -16.11 L 206.85 -16.11 Q 206.55 -14.66 206.14 -13.54 L 206.14 -13.54 Q 208.96 -11.8 213.23 -11.8 L 213.23 -11.8 Q 218.2 -11.8 221.32 -14.12 Q 224.44 -16.44 224.44 -21.15 L 224.44 -21.15 L 224.44 -53.44 L 227.11 -53.44 L 227.11 -21.15 Q 227.11 -15.33 223.19 -12.23 Q 219.28 -9.13 213.23 -9.13 L 213.23 -9.13 Q 208.52 -9.13 205.14 -11.06 L 205.14 -11.06 Q 204.58 -9.87 203.84 -8.79 L 203.84 -8.79 Q 207.89 -6.46 213.23 -6.46 L 213.23 -6.46 Q 216.68 -6.46 219.67 -7.42 Q 222.66 -8.39 224.92 -10.21 Q 227.18 -12.02 228.48 -14.84 Q 229.78 -17.66 229.78 -21.15 L 229.78 -21.15 L 229.78 -53.44 L 232.45 -53.44 L 232.45 -21.15 Q 232.45 -15.81 229.84 -11.8 Q 227.22 -7.79 222.9 -5.79 Q 218.57 -3.79 213.23 -3.79 L 213.23 -3.79 Q 207 -3.79 202.25 -6.64 L 202.25 -6.64 Q 201.21 -5.46 200.35 -4.71 L 200.35 -4.71 Q 205.88 -1.11 213.23 -1.11 L 213.23 -1.11 Q 219.28 -1.11 224.21 -3.49 Q 229.15 -5.86 232.14 -10.48 Q 235.13 -15.1 235.13 -21.15 L 235.13 -21.15 L 235.13 -53.44 L 237.8 -53.44 L 237.8 -21.15 Q 237.8 -16.03 235.85 -11.73 Q 233.9 -7.42 230.58 -4.53 Q 227.26 -1.63 222.77 -0.04 Q 218.28 1.56 213.23 1.56 L 213.23 1.56 Q 204.4 1.56 198.13 -2.97 L 198.13 -2.97 Q 191.63 1.56 182.8 1.56 L 182.8 1.56 Q 177.75 1.56 173.26 -0.04 Q 168.77 -1.63 165.45 -4.53 Q 162.13 -7.42 160.18 -11.73 Q 158.23 -16.03 158.23 -21.15 Z M 163.58 -21.15 L 163.58 -21.15 L 163.58 -53.44 L 166.25 -53.44 L 166.25 -21.15 Q 166.25 -17.66 167.55 -14.84 Q 168.85 -12.02 171.11 -10.21 Q 173.38 -8.39 176.36 -7.42 Q 179.35 -6.46 182.8 -6.46 Q 186.25 -6.46 189.24 -7.42 Q 192.23 -8.39 194.49 -10.21 Q 196.75 -12.02 198.05 -14.84 Q 199.35 -17.66 199.35 -21.15 L 199.35 -21.15 L 199.35 -53.44 L 202.02 -53.44 L 202.02 -21.15 Q 202.02 -15.81 199.41 -11.8 Q 196.79 -7.79 192.47 -5.79 Q 188.14 -3.79 182.8 -3.79 Q 177.46 -3.79 173.13 -5.79 Q 168.81 -7.79 166.19 -11.8 Q 163.58 -15.81 163.58 -21.15 Z M 168.92 -21.15 L 168.92 -21.15 L 168.92 -53.44 L 171.59 -53.44 L 171.59 -21.15 Q 171.59 -16.44 174.71 -14.12 Q 177.83 -11.8 182.8 -11.8 Q 187.77 -11.8 190.89 -14.12 Q 194.01 -16.44 194.01 -21.15 L 194.01 -21.15 L 194.01 -53.44 L 196.68 -53.44 L 196.68 -21.15 Q 196.68 -15.33 192.76 -12.23 Q 188.85 -9.13 182.8 -9.13 Q 176.75 -9.13 172.84 -12.23 Q 168.92 -15.33 168.92 -21.15 Z M 174.27 -21.15 L 174.27 -21.15 L 174.27 -53.44 L 176.94 -53.44 L 176.94 -21.15 Q 176.94 -20.08 177.25 -19.32 Q 177.57 -18.55 178.05 -18.15 Q 178.53 -17.74 179.35 -17.5 Q 180.17 -17.26 180.93 -17.2 Q 181.69 -17.14 182.8 -17.14 Q 183.91 -17.14 184.67 -17.2 Q 185.44 -17.26 186.25 -17.5 Q 187.07 -17.74 187.55 -18.15 Q 188.03 -18.55 188.35 -19.32 Q 188.66 -20.08 188.66 -21.15 L 188.66 -21.15 L 188.66 -53.44 L 191.34 -53.44 L 191.34 -21.15 Q 191.34 -14.47 182.8 -14.47 Q 174.27 -14.47 174.27 -21.15 Z" stroke-linecap="round" />
</g>
<g transform="matrix(5.8134888460095215 0 0 -0.40847849877485537 677.709249000075 772.4411127348183)" id="shape-7-logo"  >
<g style=""  paint-order="stroke"   >
		<g transform="matrix(1 0 0 1 0 0)" id="Layer_1"  >
<rect style="stroke: none; stroke-width: 1; stroke-dasharray: none; stroke-linecap: butt; stroke-dashoffset: 0; stroke-linejoin: miter; stroke-miterlimit: 4; fill: transparent; fill-rule: nonzero; opacity: 1;"  paint-order="stroke"  x="-100" y="-100" rx="40" ry="40" width="200" height="200" />
</g>
</g>
</g>
<g transform="matrix(1.9692780337941629 0 0 1.9692780337941629 678.4592670012271 771.5892170056952)" id="tagline-3e70032d-5ab4-4488-804c-df7ccd9581c4-logo-path"  >
<path style="stroke: none; stroke-width: 0; stroke-dasharray: none; stroke-linecap: butt; stroke-dashoffset: 0; stroke-linejoin: miter; stroke-miterlimit: 4; fill: rgb(255,255,255); fill-rule: nonzero; opacity: 1;"  paint-order="stroke"  transform=" translate(-279.845, 13.250000000000002)" d="M 9.37 0 L 2.97 0 L 2.97 -26.53 L 9.37 -26.53 L 9.37 -16.22 L 21.02 -16.22 L 21.02 -26.53 L 27.46 -26.53 L 27.46 0 L 21.02 0 L 21.02 -10.3 L 9.37 -10.3 L 9.37 0 Z M 38.6 0 L 31.82 0 L 43.17 -26.53 L 50.29 -26.53 L 61.68 0 L 54.86 0 L 53.15 -4.13 L 40.35 -4.13 L 38.6 0 Z M 46.79 -19.27 L 42.58 -9.37 L 50.92 -9.37 L 46.79 -19.27 Z M 72.06 0 L 65.62 0 L 65.62 -26.53 L 72.06 -26.53 L 85.48 -10.34 L 85.48 -26.53 L 91.92 -26.53 L 91.92 0 L 85.48 0 L 72.06 -16.22 L 72.06 0 Z M 109.21 0 L 97.48 0 L 97.48 -26.49 L 109.21 -26.53 Q 109.27 -26.53 109.33 -26.53 L 109.33 -26.53 Q 112.47 -26.55 115.08 -25.56 L 115.08 -25.56 Q 117.72 -24.57 119.49 -22.79 Q 121.27 -21.02 122.24 -18.59 Q 123.21 -16.15 123.21 -13.29 L 123.21 -13.29 Q 123.21 -9.46 121.45 -6.44 Q 119.69 -3.41 116.49 -1.7 Q 113.29 0 109.21 0 L 109.21 0 Z M 103.88 -20.59 L 103.88 -5.92 L 109.21 -5.92 Q 112.56 -5.92 114.65 -7.95 Q 116.73 -9.98 116.73 -13.29 L 116.73 -13.29 Q 116.73 -16.8 114.71 -18.69 Q 112.68 -20.59 109.21 -20.59 L 109.21 -20.59 L 103.88 -20.59 Z M 134.1 0 L 127.7 0 L 127.7 -26.53 L 134.79 -26.53 L 144.04 -7.06 L 153.24 -26.53 L 160.38 -26.53 L 160.38 0 L 153.94 0 L 153.94 -13.54 L 147.58 0 L 140.44 0 L 134.1 -13.54 L 134.1 0 Z M 171.48 0 L 164.7 0 L 176.05 -26.53 L 183.17 -26.53 L 194.56 0 L 187.74 0 L 186.03 -4.13 L 173.23 -4.13 L 171.48 0 Z M 179.67 -19.27 L 175.46 -9.37 L 183.8 -9.37 L 179.67 -19.27 Z M 210.63 0 L 198.9 0 L 198.9 -26.49 L 210.63 -26.53 Q 210.69 -26.53 210.75 -26.53 L 210.75 -26.53 Q 213.89 -26.55 216.5 -25.56 L 216.5 -25.56 Q 219.15 -24.57 220.92 -22.79 Q 222.69 -21.02 223.66 -18.59 Q 224.63 -16.15 224.63 -13.29 L 224.63 -13.29 Q 224.63 -9.46 222.87 -6.44 Q 221.11 -3.41 217.91 -1.7 Q 214.71 0 210.63 0 L 210.63 0 Z M 205.3 -20.59 L 205.3 -5.92 L 210.63 -5.92 Q 213.99 -5.92 216.07 -7.95 Q 218.16 -9.98 218.16 -13.29 L 218.16 -13.29 Q 218.16 -16.8 216.13 -18.69 Q 214.1 -20.59 210.63 -20.59 L 210.63 -20.59 L 205.3 -20.59 Z M 249.44 0 L 229.13 0 L 229.13 -26.53 L 249.44 -26.53 L 249.44 -20.59 L 235.52 -20.59 L 235.52 -16.03 L 247.14 -16.03 L 247.14 -10.49 L 235.52 -10.49 L 235.52 -5.92 L 249.44 -5.92 L 249.44 0 Z M 270.09 0 L 263.65 0 L 263.65 -26.53 L 275.89 -26.53 Q 278.35 -26.53 280.31 -25.66 Q 282.27 -24.79 283.48 -23.34 Q 284.69 -21.88 285.33 -20.08 Q 285.97 -18.28 285.97 -16.3 L 285.97 -16.3 Q 285.97 -14.72 285.58 -13.23 Q 285.19 -11.73 284.36 -10.42 Q 283.53 -9.1 282.35 -8.12 Q 281.17 -7.14 279.5 -6.57 Q 277.84 -6 275.86 -6 L 275.86 -6 L 270.09 -6 L 270.09 0 Z M 270.09 -20.59 L 270.09 -11.9 L 275.17 -11.9 Q 277.15 -11.9 278.32 -13.04 Q 279.49 -14.19 279.49 -16.3 L 279.49 -16.3 Q 279.49 -18.38 278.33 -19.46 Q 277.17 -20.55 275.17 -20.59 L 275.17 -20.59 L 270.09 -20.59 Z M 297.28 0 L 290.88 0 L 290.88 -26.53 L 297.28 -26.53 L 297.28 0 Z M 323.52 0 L 303.2 0 L 303.2 -26.53 L 323.52 -26.53 L 323.52 -20.59 L 309.6 -20.59 L 309.6 -16.03 L 321.22 -16.03 L 321.22 -10.49 L 309.6 -10.49 L 309.6 -5.92 L 323.52 -5.92 L 323.52 0 Z M 327.48 -9.27 L 327.48 -9.27 L 333.84 -9.27 Q 333.86 -9.1 333.93 -8.82 Q 333.99 -8.53 334.37 -7.81 Q 334.74 -7.08 335.3 -6.53 Q 335.86 -5.98 337 -5.52 Q 338.15 -5.07 339.61 -5.07 L 339.61 -5.07 Q 341.59 -5.07 342.55 -5.76 Q 343.52 -6.46 343.52 -7.41 L 343.52 -7.41 Q 343.52 -7.9 343.24 -8.3 Q 342.96 -8.7 342.59 -8.97 Q 342.22 -9.24 341.52 -9.49 Q 340.81 -9.75 340.28 -9.89 Q 339.75 -10.04 338.83 -10.26 L 338.83 -10.26 Q 335.04 -11.16 333.25 -11.9 L 333.25 -11.9 Q 327.88 -14.13 327.88 -18.57 L 327.88 -18.57 Q 327.88 -20.95 329.32 -22.88 Q 330.76 -24.81 333.22 -25.9 Q 335.69 -26.98 338.68 -26.98 L 338.68 -26.98 Q 341.15 -26.98 343.22 -26.18 Q 345.29 -25.38 346.57 -24.1 Q 347.86 -22.81 348.55 -21.26 Q 349.25 -19.71 349.25 -18.13 L 349.25 -18.13 L 342.89 -18.13 Q 342.89 -19.25 341.7 -20.25 Q 340.51 -21.25 338.6 -21.25 L 338.6 -21.25 Q 337.02 -21.25 335.69 -20.59 Q 334.36 -19.94 334.36 -18.87 L 334.36 -18.87 Q 334.36 -17.98 335.51 -17.45 Q 336.66 -16.93 339.84 -16.11 L 339.84 -16.11 Q 343.46 -15.18 345.06 -14.45 L 345.06 -14.45 Q 349.4 -12.49 349.86 -8.74 L 349.86 -8.74 Q 349.91 -8.26 349.91 -7.77 L 349.91 -7.77 Q 349.91 -4.02 346.95 -1.77 Q 343.99 0.48 339.27 0.48 L 339.27 0.48 Q 336.87 0.48 334.86 -0.14 Q 332.85 -0.76 331.52 -1.76 Q 330.19 -2.76 329.25 -4.06 Q 328.32 -5.35 327.9 -6.67 Q 327.48 -8 327.48 -9.27 Z M 362.75 -7.48 L 362.75 -7.48 Q 362.75 -10.93 366.42 -14.4 L 366.42 -14.4 Q 365.32 -15.41 364.55 -16.88 Q 363.78 -18.36 363.78 -19.98 L 363.78 -19.98 Q 363.78 -21.35 364.41 -22.58 Q 365.03 -23.82 366.2 -24.81 Q 367.36 -25.8 369.2 -26.39 Q 371.03 -26.98 373.28 -26.98 L 373.28 -26.98 Q 375.51 -26.98 377.29 -26.4 Q 379.07 -25.82 380.15 -24.93 Q 381.24 -24.03 381.96 -22.89 Q 382.69 -21.75 382.96 -20.71 Q 383.24 -19.67 383.24 -18.72 L 383.24 -18.72 L 377.15 -18.72 Q 377.15 -19.92 376.26 -20.88 Q 375.38 -21.84 373.64 -21.84 L 373.64 -21.84 Q 372.42 -21.84 371.51 -21.36 Q 370.6 -20.87 370.6 -20.05 L 370.6 -20.05 Q 370.6 -18.64 373.76 -15.79 L 373.76 -15.79 Q 378.54 -11.56 380.15 -10.09 L 380.15 -10.09 Q 380.35 -11.2 380.35 -12.91 L 380.35 -12.91 L 386.42 -12.91 Q 386.42 -8.7 384.92 -5.92 L 384.92 -5.92 L 387.71 -3.43 L 383.32 0.38 L 381.05 -1.64 Q 377.95 0.48 373.64 0.48 L 373.64 0.48 Q 368.96 0.48 365.85 -1.74 Q 362.75 -3.96 362.75 -7.48 Z M 369.47 -8.3 L 369.47 -8.3 Q 369.47 -6.87 370.72 -5.97 Q 371.97 -5.07 373.91 -5.07 L 373.91 -5.07 Q 375.41 -5.07 376.56 -5.54 L 376.56 -5.54 L 370.67 -10.68 Q 369.47 -9.62 369.47 -8.3 Z M 400.17 -13.46 L 400.17 -13.46 Q 400.17 -16.21 401.25 -18.68 Q 402.34 -21.16 404.23 -22.98 Q 406.11 -24.81 408.8 -25.9 Q 411.48 -26.98 414.53 -26.98 L 414.53 -26.98 Q 418.68 -26.98 421.93 -25.2 Q 425.17 -23.42 427 -20.36 L 427 -20.36 L 421.57 -17.2 Q 420.6 -19.06 418.79 -20.14 Q 416.98 -21.21 414.53 -21.21 L 414.53 -21.21 Q 411.08 -21.21 408.86 -19 Q 406.64 -16.78 406.64 -13.46 L 406.64 -13.46 Q 406.64 -11.37 407.63 -9.56 Q 408.62 -7.75 410.44 -6.65 Q 412.26 -5.54 414.53 -5.54 L 414.53 -5.54 Q 416.89 -5.54 418.69 -6.63 Q 420.49 -7.71 421.5 -9.56 L 421.5 -9.56 L 426.92 -6.44 Q 425.06 -3.31 421.82 -1.42 Q 418.58 0.48 414.53 0.48 L 414.53 0.48 Q 411.46 0.48 408.79 -0.61 Q 406.11 -1.69 404.23 -3.55 Q 402.34 -5.41 401.25 -7.98 Q 400.17 -10.55 400.17 -13.46 Z M 428.71 -13.25 L 428.71 -13.25 Q 428.71 -16.03 429.79 -18.57 Q 430.87 -21.1 432.69 -22.95 Q 434.52 -24.79 437.06 -25.89 Q 439.59 -26.98 442.39 -26.98 L 442.39 -26.98 Q 445.15 -26.98 447.69 -25.89 Q 450.23 -24.79 452.06 -22.95 Q 453.89 -21.1 454.98 -18.56 Q 456.08 -16.02 456.08 -13.25 L 456.08 -13.25 Q 456.08 -10.47 454.99 -7.93 Q 453.91 -5.39 452.07 -3.55 Q 450.23 -1.71 447.69 -0.62 Q 445.15 0.48 442.39 0.48 L 442.39 0.48 Q 438.65 0.48 435.5 -1.37 Q 432.35 -3.22 430.53 -6.37 Q 428.71 -9.52 428.71 -13.25 Z M 434.56 -13.25 L 434.56 -13.25 Q 434.56 -10.02 436.86 -7.74 Q 439.15 -5.47 442.39 -5.47 L 442.39 -5.47 Q 445.59 -5.47 447.87 -7.74 Q 450.16 -10.02 450.16 -13.25 L 450.16 -13.25 Q 450.16 -16.45 447.87 -18.74 Q 445.59 -21.02 442.39 -21.02 L 442.39 -21.02 Q 439.15 -21.02 436.86 -18.75 Q 434.56 -16.47 434.56 -13.25 Z M 466.69 0 L 460.29 0 L 460.29 -26.53 L 480.61 -26.53 L 480.61 -20.59 L 466.69 -20.59 L 466.69 -14.51 L 478.3 -14.51 L 478.3 -8.63 L 466.69 -8.63 L 466.69 0 Z M 491.99 0 L 485.6 0 L 485.6 -26.53 L 505.91 -26.53 L 505.91 -20.59 L 491.99 -20.59 L 491.99 -14.51 L 503.61 -14.51 L 503.61 -8.63 L 491.99 -8.63 L 491.99 0 Z M 531.22 0 L 510.9 0 L 510.9 -26.53 L 531.22 -26.53 L 531.22 -20.59 L 517.3 -20.59 L 517.3 -16.03 L 528.92 -16.03 L 528.92 -10.49 L 517.3 -10.49 L 517.3 -5.92 L 531.22 -5.92 L 531.22 0 Z M 556.72 0 L 536.4 0 L 536.4 -26.53 L 556.72 -26.53 L 556.72 -20.59 L 542.8 -20.59 L 542.8 -16.03 L 554.42 -16.03 L 554.42 -10.49 L 542.8 -10.49 L 542.8 -5.92 L 556.72 -5.92 L 556.72 0 Z" stroke-linecap="round" />
</g>
</svg>